<?xml version="1.0" encoding="iso-8859-1"?>
<!-- Generator: Adobe Illustrator 16.0.0, SVG Export Plug-In . SVG Version: 6.00 Build 0)  -->
<!DOCTYPE svg PUBLIC "-//W3C//DTD SVG 1.1//EN" "http://www.w3.org/Graphics/SVG/1.1/DTD/svg11.dtd">
<svg xmlns="http://www.w3.org/2000/svg" xmlns:xlink="http://www.w3.org/1999/xlink" version="1.1" id="Capa_1" x="0px" y="0px" width="512px" height="512px" viewBox="0 0 458.883 458.883" style="enable-background:new 0 0 458.883 458.883;" xml:space="preserve">
<g>
	<g>
		<path d="M446.383,245.43H25V92.704c0-6.903-5.597-12.5-12.5-12.5c-6.903,0-12.5,5.597-12.5,12.5v273.476    c0,6.903,5.597,12.5,12.5,12.5h0.236c6.903,0,12.5-5.597,12.5-12.5V270.43h408.647v95.749c0,6.903,5.596,12.5,12.5,12.5    c6.9,0,12.5-5.597,12.5-12.5V257.93C458.883,251.027,453.285,245.43,446.383,245.43z" fill="#0277bd"/>
		<path d="M40.028,167.501c0,29.559,24.048,53.606,53.606,53.606s53.605-24.048,53.605-53.606c0-29.558-24.047-53.606-53.605-53.606    S40.028,137.943,40.028,167.501z M122.24,167.501c0,15.773-12.832,28.606-28.605,28.606s-28.606-12.833-28.606-28.606    c0-15.773,12.833-28.606,28.606-28.606S122.24,151.728,122.24,167.501z" fill="#0277bd"/>
		<path d="M161.903,148.919v56.978c0,6.903,5.597,12.5,12.5,12.5h268.271c6.902,0,12.5-5.597,12.5-12.5v-56.978    c0-6.903-5.598-12.5-12.5-12.5H174.403C167.5,136.419,161.903,142.016,161.903,148.919z M186.903,161.419h243.271v31.978H186.903    V161.419z" fill="#0277bd"/>
	</g>
</g>
<g>
</g>
<g>
</g>
<g>
</g>
<g>
</g>
<g>
</g>
<g>
</g>
<g>
</g>
<g>
</g>
<g>
</g>
<g>
</g>
<g>
</g>
<g>
</g>
<g>
</g>
<g>
</g>
<g>
</g>
</svg>
